<svg xmlns="http://www.w3.org/2000/svg" viewBox="0 0 1024 1252">
  <g>
    <path d="M176,320H80a80,80,0,0,1,0-160h96a80,80,0,0,1,0,160Z" style="fill: #f3471b"/>
    <path d="M528,549.82V184a184,184,0,0,0-368,0V720c0,3.53.12,7,.32,10.52C167,924.46,357.65,1080,592,1080c238.59,0,432-161.18,432-360V400S880,552,528,549.82Z"/>
    <circle cx="348" cy="180" r="84" style="fill: #fff"/>
    <rect x="652" y="1052" width="80" height="128"/>
    <rect x="472" y="1056" width="80" height="128"/>
    <path d="M568,1244H376a36,36,0,0,1,0-72H568a36,36,0,0,1,0,72Z" style="fill: #f26b30"/>
    <path d="M752,1252H560a36,36,0,0,1,0-72H752a36,36,0,0,1,0,72Z" style="fill: #f3471b"/>
  </g>
</svg>
