<svg xmlns="http://www.w3.org/2000/svg" viewBox="0 0 1024 689">
  <g>
    <path d="M774.6,226.18c-192.35,35.26-239.55-103.11-431.9-67.84C150,193.46,194.77,336.74,0,368.11v283.3c28.35,2.17,56.89.15,84.89-4.8,47-8.7,82.62-21.48,118.46-49.17,25.88-20.15,45.78-45.84,67.87-69.72,41.65-46.28,89.45-69.56,151.74-80.35,33.7-6,68.27-7.65,102.21-3,53.71,6.74,102.53,31.25,152.71,49.86A410.28,410.28,0,0,0,719,507c84.55,24.07,215-.4,271.44-60.72h0c11.93-11.27,22.75-23.53,33.58-35.82V47.8C929.07,102.18,929.79,197.73,774.6,226.18Z" style="fill: #167ee5"/>
    <path d="M891.94,103.46c-34.6,41.39-59.61,71.3-130.45,84.28S649.4,183,592.29,158.39c-62.9-27.07-141.18-60.76-262.7-38.49s-169,79-207.08,124.6C89.24,284.31,64.82,313.48,0,327.21v40.9c1.72-.3,3.43-.57,5.18-.89C197.54,332,150.34,193.6,342.7,158.34s239.55,103.1,431.9,67.84c155.19-28.45,154.47-124,249.4-178.38V0C955.46,27.51,921,68.72,891.94,103.46Z" style="fill: #03b7a8"/>
  </g>
  <g>
    <path d="M891.94,103.46c-34.6,41.39-59.61,71.3-130.45,84.28S649.4,183,592.29,158.39c-62.9-27.07-141.18-60.76-262.7-38.49s-169,79-207.08,124.6C89.24,284.31,64.82,313.48,0,327.21v40.9c1.72-.3,3.43-.57,5.18-.89C197.54,332,150.34,193.6,342.7,158.34s239.55,103.1,431.9,67.84c155.19-28.45,154.47-124,249.4-178.38V0C955.46,27.51,921,68.72,891.94,103.46Z" style="fill: #03b7a8"/>
    <path d="M774.6,226.18c-192.35,35.26-239.55-103.11-431.9-67.84S197.54,332,5.18,367.22c-1.75.32-3.46.59-5.18.89v40.51q9-1.28,18.29-3c121.52-22.27,169-79,207.07-124.6C260,239.66,285,209.75,355.81,196.77S467.9,201.54,525,226.12c53,22.81,116.86,50.31,208.32,45.1a441.54,441.54,0,0,0,54.38-6.61c121.53-22.28,169-79,207.08-124.6,10.1-12.07,19.38-23.16,29.21-33.14V47.8C929.07,102.18,929.79,197.73,774.6,226.18Z" style="fill: #00a6b7"/>
  </g>
  <path d="M854.59,510.51c-192.42,34-239.21-97.16-431.63-63.14S277.32,612.59,84.89,646.61C53,652.24,25.19,653.33,0,651.41V689H1024V410.48C987.47,451.92,951.13,493.44,854.59,510.51Z" style="fill: #724c33"/>
  <path d="M972.27,393.7c-34.72,39.38-59.81,67.84-130.67,80.37s-112.07-4.21-169.09-27.37c-62.81-25.51-141-57.26-262.55-35.77S240.8,486.41,202.56,529.8c-34.72,39.38-59.81,67.84-130.67,80.37C44.33,615,21.26,615.47,0,612.83V651.4c25.19,1.93,53,.84,84.89-4.79,192.43-34,145.64-165.22,338.07-199.24s239.21,97.17,431.63,63.14c96.54-17.07,132.87-58.59,169.41-100V341.57C1003,358.89,986.93,377.07,972.27,393.7Z" style="fill: #936044"/>
  <path d="M1140.87,48.19c-72.75,13.45-98.41,44.53-133.92,87.54-39.12,47.38-87.8,106.34-212.6,129.41A445.72,445.72,0,0,1,738.51,272c-93.94,5.35-159.57-23.29-214-47-58.67-25.6-101.06-44.09-173.8-30.64s-98.4,44.52-133.91,87.54C177.68,329.2,129,388.16,4.21,411.23a447.92,447.92,0,0,1-55.84,6.84,383.85,383.85,0,0,1-65.1-1.72" style="fill: none;stroke: #32b4fe;stroke-linecap: round;stroke-linejoin: round;stroke-width: 12px"/>
  <path d="M-73.6,479.8q7,3.07,13.84,6.09l.66.29c51.45,22.74,68.78,30.4,107.68,23.37C164,497.22,222,267.22,371,252.22c149-12,295,109,465,82,84-20,153-128.6,276.7-164.33" style="fill: none;stroke: #32b4fe;stroke-linecap: round;stroke-linejoin: round;stroke-width: 12px"/>
  <path d="M1142.66,273.65C1050.79,300.18,1009.33,350,976,390.08c-35,42.13-60.37,72.57-131.84,85.48a248.52,248.52,0,0,1-44.46,4.25c-46.64,0-81.57-15.44-126.05-35.1-63.35-28-142.17-62.83-264.79-40.68-54.52,9.85-99.05,27.53-136.13,54.06-32.17,23-53.93,49.17-73.12,72.25-35.05,42.13-60.37,72.57-131.84,85.49a249.37,249.37,0,0,1-44.46,4.24c-46.64,0-81.58-15.44-126.07-35.11l-.65-.29c-4.37-1.92-8.81-3.89-13.33-5.86" style="fill: none;stroke: #32b4fe;stroke-linecap: round;stroke-linejoin: round;stroke-width: 12px"/>
  <path d="M-95.16,529.31q7.13,3.11,14,6.16l.23.1C-26.81,559.49,3,572.66,58.18,562.69,183,549.22,232,339.22,381,319.22c189-16,353.43,100.79,458,89,95.43-4.21,180.88-155.32,288.68-186.45" style="fill: none;stroke: #32b4fe;stroke-linecap: round;stroke-linejoin: round;stroke-width: 12px"/>
  <path d="M1142.66,273.65c-91.87,26.53-132.87,75.82-166.65,116.43-35,42.13-60.36,72.57-131.85,85.49s-113-5.45-170.51-30.87c-63.34-28-142.16-62.82-264.77-40.67S238.21,483.94,199.62,530.34c-35.05,42.13-60.37,72.57-131.84,85.49s-113-5.45-170.52-30.86q-6.87-3-14-6.16" style="fill: none;stroke: #32b4fe;stroke-linecap: round;stroke-linejoin: round;stroke-width: 12px"/>
</svg>
