<svg xmlns="http://www.w3.org/2000/svg" viewBox="0 0 1024 689">
  <path d="M1140.87,48.19c-72.75,13.45-98.41,44.53-133.92,87.54-39.12,47.38-87.8,106.34-212.6,129.41A445.72,445.72,0,0,1,738.51,272c-93.94,5.35-159.57-23.29-214-47-58.67-25.6-101.06-44.09-173.8-30.64s-98.4,44.52-133.91,87.54C177.68,329.2,129,388.16,4.21,411.23a447.92,447.92,0,0,1-55.84,6.84,383.85,383.85,0,0,1-65.1-1.72" style="fill: none;stroke: #32b4fe;stroke-linecap: round;stroke-linejoin: round;stroke-width: 12px"/>
  <path d="M-73.6,479.8q7,3.07,13.84,6.09l.66.29c51.45,22.74,68.78,30.4,107.68,23.37C164,497.22,222,267.22,371,252.22c149-12,295,109,465,82,84-20,153-128.6,276.7-164.33" style="fill: none;stroke: #32b4fe;stroke-linecap: round;stroke-linejoin: round;stroke-width: 12px"/>
  <path d="M1142.66,273.65C1050.79,300.18,1009.33,350,976,390.08c-35,42.13-60.37,72.57-131.84,85.48a248.52,248.52,0,0,1-44.46,4.25c-46.64,0-81.57-15.44-126.05-35.1-63.35-28-142.17-62.83-264.79-40.68-54.52,9.85-99.05,27.53-136.13,54.06-32.17,23-53.93,49.17-73.12,72.25-35.05,42.13-60.37,72.57-131.84,85.49a249.37,249.37,0,0,1-44.46,4.24c-46.64,0-81.58-15.44-126.07-35.11l-.65-.29c-4.37-1.92-8.81-3.89-13.33-5.86" style="fill: none;stroke: #32b4fe;stroke-linecap: round;stroke-linejoin: round;stroke-width: 12px"/>
  <path d="M-95.16,529.31q7.13,3.11,14,6.16l.23.1C-26.81,559.49,3,572.66,58.18,562.69,183,549.22,232,339.22,381,319.22c189-16,353.43,100.79,458,89,95.43-4.21,180.88-155.32,288.68-186.45" style="fill: none;stroke: #32b4fe;stroke-linecap: round;stroke-linejoin: round;stroke-width: 12px"/>
  <path d="M1142.66,273.65c-91.87,26.53-132.87,75.82-166.65,116.43-35,42.13-60.36,72.57-131.85,85.49s-113-5.45-170.51-30.87c-63.34-28-142.16-62.82-264.77-40.67S238.21,483.94,199.62,530.34c-35.05,42.13-60.37,72.57-131.84,85.49s-113-5.45-170.52-30.86q-6.87-3-14-6.16" style="fill: none;stroke: #32b4fe;stroke-linecap: round;stroke-linejoin: round;stroke-width: 12px"/>
</svg>
