<svg xmlns="http://www.w3.org/2000/svg" viewBox="0 0 188.53 127.32">
  <g>
    <path d="M4.71,51s9-16.92,12.72-22.52,11-12.17,20.51-16.32,28.25-9,34.14-11S89.52-.3,99.74,3.69L122.43,13s11.43,2.9,16.74,12.43,11.7,20.28,13.89,22.71,6.7,5,13.63,5.32S186,61.34,186.83,67.17s4.84,18.78-3.48,23S93.93,118,88,120.05s-10.52,1.78-19.58-2.16S11.71,95.32,11.71,95.32s-9.12-2.78-11-11,.71-13.86.71-13.86Z" style="fill: #faaa16"/>
    <circle cx="94.89" cy="110.55" r="16.77" style="fill: #3c32b6"/>
    <circle cx="96.59" cy="111.22" r="9.25" style="fill: #9074fc"/>
    <circle cx="153.69" cy="92.7" r="16.77" style="fill: #3c32b6"/>
    <circle cx="155.39" cy="93.37" r="9.25" style="fill: #9074fc"/>
    <path d="M45.24,72.15l-21-7.23c-8.27-2.84-11-11.9-6.73-19.3l6.65-11.49c3.15-5.43,10.53-8,16.72-6.06l15.68,4.79c6.44,2,10.95,8.3,9.86,14.62L64.06,60.9A14.24,14.24,0,0,1,45.24,72.15Z" style="fill: #d2c3fd"/>
    <path d="M137,68.84l-17.84,4.77c-9.77,2.62-17.27-7.07-16.46-17.77l.47-6.23c.49-6.54,5.3-11.6,10.63-12.49l10.09-1.67c4.91-.82,11.05,2.08,14.35,7.36l3.08,4.92C146.48,56,145.43,66.59,137,68.84Z" style="fill: #d2c3fd"/>
    <path d="M40.07,102.29,24.24,96.36a3.12,3.12,0,0,1-2.14-3.25l1.29-6.3c.26-1.25,1.64-1.85,3.09-1.35L42.33,91a3.27,3.27,0,0,1,2.34,3.36L43.36,101C43.1,102.28,41.62,102.87,40.07,102.29Z" style="fill: #b5b5b5"/>
  </g>
</svg>
