<svg xmlns="http://www.w3.org/2000/svg" viewBox="0 0 188.53 127.32">
  <g>
    <path d="M5.17,51s9-16.92,12.73-22.52,11-12.17,20.51-16.32,28.25-9,34.14-11S90-.3,100.21,3.69L122.9,13s11.43,2.9,16.73,12.43,11.71,20.28,13.9,22.71,6.7,5,13.62,5.32,19.29,7.93,20.15,13.76,4.83,18.78-3.49,23S94.39,118,88.5,120.05,78,121.83,68.93,117.89,12.18,95.32,12.18,95.32s-9.12-2.78-11-11,.7-13.86.7-13.86Z" style="fill: #9867ff"/>
    <circle cx="95.35" cy="110.55" r="16.77" style="fill: #3c32b6"/>
    <circle cx="97.06" cy="111.22" r="9.25" style="fill: #9074fc"/>
    <circle cx="154.16" cy="92.7" r="16.77" style="fill: #3c32b6"/>
    <circle cx="155.86" cy="93.37" r="9.25" style="fill: #9074fc"/>
    <path d="M45.7,72.15,24.65,64.92c-8.26-2.84-11-11.9-6.72-19.3l6.65-11.49c3.15-5.43,10.52-8,16.72-6.06L57,32.86c6.44,2,11,8.3,9.86,14.62L64.52,60.9A14.23,14.23,0,0,1,45.7,72.15Z" style="fill: #d2c3fd"/>
    <path d="M137.48,68.84l-17.84,4.77c-9.77,2.62-17.26-7.07-16.45-17.77l.46-6.23c.5-6.54,5.3-11.6,10.64-12.49l10.08-1.67c4.92-.82,11.06,2.08,14.36,7.36l3.08,4.92C147,56,145.9,66.59,137.48,68.84Z" style="fill: #d2c3fd"/>
    <path d="M40.54,102.29,24.71,96.36a3.13,3.13,0,0,1-2.15-3.25l1.3-6.3c.26-1.25,1.64-1.85,3.08-1.35L42.8,91a3.28,3.28,0,0,1,2.34,3.36L43.83,101C43.57,102.28,42.08,102.87,40.54,102.29Z" style="fill: #b5b5b5"/>
  </g>
</svg>
