<svg xmlns="http://www.w3.org/2000/svg" viewBox="0 0 1024 676.74">
  <g>
    <path d="M1023.8,222.81l-31.23,9.91a5.6,5.6,0,0,1-1.75.27,5.78,5.78,0,0,1-1.75-11.29l34.73-11V179.92h.2V11.56L0,329.09V676.74L1024,347.21V242.41h-.2ZM39.53,442.88,75,431.38a5.78,5.78,0,1,1,3.56,11L43.1,453.87a5.63,5.63,0,0,1-1.79.29,5.78,5.78,0,0,1-1.78-11.28Zm39.6,120L43.68,574.4a5.78,5.78,0,0,1-3.57-11l35.46-11.5a5.78,5.78,0,1,1,3.56,11Zm92.68-159a5.78,5.78,0,0,1-1.75-11.29l35.52-11.28a5.78,5.78,0,0,1,3.5,11l-35.52,11.28A5.6,5.6,0,0,1,171.81,403.93ZM218,513.83l-35.46,11.5a5.78,5.78,0,1,1-3.56-11l35.45-11.5a5.78,5.78,0,1,1,3.57,11Zm78.11-154.55A5.78,5.78,0,0,1,294.4,348l35.52-11.28a5.79,5.79,0,0,1,3.5,11L297.89,359A5.61,5.61,0,0,1,296.14,359.28Zm52,105.42L312.59,476a5.61,5.61,0,0,1-1.75.28,5.79,5.79,0,0,1-1.75-11.3l35.53-11.28a5.78,5.78,0,1,1,3.49,11ZM472.45,420l-35.52,11.28a6,6,0,0,1-1.75.27,5.79,5.79,0,0,1-1.75-11.3L469,409a5.78,5.78,0,1,1,3.5,11Zm1.21-120.31L438.13,311a5.91,5.91,0,0,1-1.75.27A5.78,5.78,0,0,1,434.63,300l35.53-11.28a5.78,5.78,0,0,1,3.5,11Zm139,72.32-35.53,11.27a5.6,5.6,0,0,1-1.75.27,5.78,5.78,0,0,1-1.75-11.29L609.19,361a5.79,5.79,0,0,1,3.5,11Zm6.95-123.86-35.46,11.5a5.78,5.78,0,1,1-3.56-11l35.45-11.5a5.78,5.78,0,1,1,3.57,11Zm99.87-48.57L755,188.13a5.78,5.78,0,1,1,3.56,11l-35.45,11.5a5.88,5.88,0,0,1-1.79.29,5.79,5.79,0,0,1-1.78-11.29Zm39.61,120-35.46,11.49a5.53,5.53,0,0,1-1.78.29,5.79,5.79,0,0,1-1.79-11.29l35.46-11.49a5.78,5.78,0,0,1,3.57,11Zm92.67-159A5.78,5.78,0,0,1,850,149.39l35.53-11.28a5.78,5.78,0,1,1,3.49,11l-35.52,11.28A5.91,5.91,0,0,1,851.79,160.68ZM898,270.58l-35.45,11.5a5.91,5.91,0,0,1-1.79.28A5.78,5.78,0,0,1,859,271.08l35.45-11.5a5.78,5.78,0,1,1,3.57,11ZM976.13,116a5.78,5.78,0,0,1-1.75-11.29l35.52-11.28a5.78,5.78,0,0,1,3.5,11l-35.52,11.28A5.69,5.69,0,0,1,976.13,116Z" style="fill: #939393"/>
    <polygon points="1024 0 0 317.53 0 329.09 1024 11.56 1024 0" style="fill: #636363"/>
    <path d="M470.16,288.71,434.63,300a5.78,5.78,0,0,0,1.75,11.29,5.91,5.91,0,0,0,1.75-.27l35.53-11.28a5.78,5.78,0,0,0-3.5-11Z" style="fill: #fff"/>
    <path d="M609.19,361,573.66,372.3a5.78,5.78,0,0,0,1.75,11.29,5.6,5.6,0,0,0,1.75-.27l35.53-11.27a5.79,5.79,0,0,0-3.5-11Z" style="fill: #fff"/>
    <path d="M616.07,237.19l-35.45,11.5a5.78,5.78,0,0,0,3.56,11l35.46-11.5a5.78,5.78,0,1,0-3.57-11Z" style="fill: #fff"/>
    <path d="M755.55,308.65l-35.46,11.49a5.79,5.79,0,0,0,1.79,11.29,5.53,5.53,0,0,0,1.78-.29l35.46-11.49a5.78,5.78,0,0,0-3.57-11Z" style="fill: #fff"/>
    <path d="M989.07,221.7A5.78,5.78,0,0,0,990.82,233a5.6,5.6,0,0,0,1.75-.27l31.23-9.91V210.68Z" style="fill: #fff"/>
    <path d="M892.83,141.87a5.78,5.78,0,0,0-7.26-3.76L850,149.39a5.78,5.78,0,0,0,1.75,11.29,5.91,5.91,0,0,0,1.75-.27l35.52-11.28A5.79,5.79,0,0,0,892.83,141.87Z" style="fill: #fff"/>
    <path d="M1017.16,97.21a5.78,5.78,0,0,0-7.26-3.76l-35.52,11.28A5.78,5.78,0,0,0,976.13,116a5.69,5.69,0,0,0,1.75-.27l35.52-11.28A5.78,5.78,0,0,0,1017.16,97.21Z" style="fill: #fff"/>
    <path d="M721.29,210.91a5.88,5.88,0,0,0,1.79-.29l35.45-11.5a5.78,5.78,0,1,0-3.56-11l-35.46,11.49a5.79,5.79,0,0,0,1.78,11.29Z" style="fill: #fff"/>
    <path d="M894.44,259.58,859,271.08a5.78,5.78,0,0,0,1.78,11.28,5.91,5.91,0,0,0,1.79-.28L898,270.58a5.78,5.78,0,1,0-3.57-11Z" style="fill: #fff"/>
    <path d="M75.57,551.9,40.11,563.4a5.78,5.78,0,0,0,3.57,11l35.45-11.5a5.78,5.78,0,1,0-3.56-11Z" style="fill: #fff"/>
    <path d="M344.62,453.67,309.09,465a5.79,5.79,0,0,0,1.75,11.3,5.61,5.61,0,0,0,1.75-.28l35.52-11.27a5.78,5.78,0,1,0-3.49-11Z" style="fill: #fff"/>
    <path d="M212.84,385.12a5.78,5.78,0,0,0-7.26-3.76l-35.52,11.28a5.78,5.78,0,0,0,1.75,11.29,5.6,5.6,0,0,0,1.75-.27l35.52-11.28A5.77,5.77,0,0,0,212.84,385.12Z" style="fill: #fff"/>
    <path d="M469,409l-35.52,11.27a5.79,5.79,0,0,0,1.75,11.3,6,6,0,0,0,1.75-.27L472.45,420a5.78,5.78,0,1,0-3.5-11Z" style="fill: #fff"/>
    <path d="M337.18,340.47a5.78,5.78,0,0,0-7.26-3.77L294.4,348a5.78,5.78,0,0,0,1.74,11.3,5.61,5.61,0,0,0,1.75-.28l35.53-11.27A5.78,5.78,0,0,0,337.18,340.47Z" style="fill: #fff"/>
    <path d="M41.31,454.16a5.63,5.63,0,0,0,1.79-.29l35.45-11.49a5.78,5.78,0,1,0-3.56-11l-35.46,11.5a5.78,5.78,0,0,0,1.78,11.28Z" style="fill: #fff"/>
    <path d="M214.46,502.83,179,514.33a5.78,5.78,0,0,0,3.56,11L218,513.83a5.78,5.78,0,1,0-3.57-11Z" style="fill: #fff"/>
    <polygon points="1023.8 210.68 1024 210.61 1024 179.92 1023.8 179.92 1023.8 210.68" style="fill: #939393"/>
    <polygon points="1023.8 222.81 1023.8 242.41 1024 242.41 1024 222.75 1023.8 222.81" style="fill: #939393"/>
    <polygon points="1023.8 222.81 1024 222.75 1024 210.61 1023.8 210.68 1023.8 222.81" style="fill: #fff"/>
  </g>
</svg>
