<svg xmlns="http://www.w3.org/2000/svg" viewBox="0 0 665.5 250">
  <g>
    <g>
      <path d="M504.34,114.64l-.77.64Z" style="fill: #4c302c"/>
      <path d="M500.85,117.58l-4,3.41Z" style="fill: #4c302c"/>
      <path d="M506,113.23l-.5.42Z" style="fill: #4c302c"/>
      <path d="M502.4,116.27l-.95.8Z" style="fill: #4c302c"/>
      <path d="M513.9,106.94l-.48.37Z" style="fill: #4c302c"/>
      <path d="M510.68,109.43c-1.08.85-2.14,1.71-3.18,2.57C508.54,111.14,509.6,110.28,510.68,109.43Z" style="fill: #4c302c"/>
      <path d="M541.5,0c-18.67,0-40.75,10.63-90.08,56H412.5c-33.75,0-67.49,32.33-95.63,56.38,26.41-8.14,50-10.38,72.63-10.38H520.71c35.8-24.91,89.12-46,144.79-46V0Z" style="fill: #4c302c"/>
    </g>
    <path d="M665.5,56V250h-315s122-109,157-138S602.5,56,665.5,56Z" style="fill: #966153"/>
    <path d="M389.5,102c-53.93,0-113.21,12.7-203.46,87.72,41.79,23.7,84,59.78,84,59.78H121l-.5.5h230s122-109,157-138c4.07-3.37,8.5-6.72,13.21-10Z" style="fill: #6d453d"/>
    <path d="M0,249.5s83.5-80,130-80,140,80,140,80Z" style="fill: #966153"/>
  </g>
</svg>
