<svg xmlns="http://www.w3.org/2000/svg" viewBox="0 0 1200 1200">
  <g>
    <path d="M600,1200C268.63,1200,0,931.37,0,600S268.63,0,600,0Z" style="fill: #0075ba"/>
    <path d="M600,0c331.37,0,600,268.63,600,600s-268.63,600-600,600Z" style="fill: #0059aa"/>
  </g>
  <g>
    <path d="M718.64,552.54A103.39,103.39,0,0,0,822,655.93h375.39Q1200,628.32,1200,600a601.12,601.12,0,0,0-19.13-150.85H822A103.39,103.39,0,0,0,718.64,552.54Z" style="fill: #0c9559"/>
    <path d="M900,296.61a50.85,50.85,0,0,0-50.85-50.85h-139a50.85,50.85,0,1,0,0,101.7h139A50.85,50.85,0,0,0,900,296.61Z" style="fill: #0c9559"/>
    <path d="M120.34,645.76a50.85,50.85,0,0,0-50.85-50.84H0c0,1.69,0,3.38,0,5.08a604.38,604.38,0,0,0,7.75,96.61H69.49A50.85,50.85,0,0,0,120.34,645.76Z" style="fill: #31cf26"/>
    <path d="M744.92,52.54a34.74,34.74,0,0,0,34.74,34.75H911.81a596.54,596.54,0,0,0-149.22-65A34.71,34.71,0,0,0,744.92,52.54Z" style="fill: #0c9559"/>
    <path d="M1011.86,713.56a78,78,0,0,0,0,155.93h124.35a595.6,595.6,0,0,0,53.06-155.93Z" style="fill: #0c9559"/>
    <path d="M145.46,367.49a25.14,25.14,0,0,1-17.83,24H106.78a69.49,69.49,0,1,0,0,139H269.49a69.49,69.49,0,0,0,0-139H255.42a25.1,25.1,0,0,1,.92-48.31H394.92a82.21,82.21,0,0,0,0-164.41H172.69A601.63,601.63,0,0,0,57.58,343.22h69.13A25.11,25.11,0,0,1,145.46,367.49Z" style="fill: #31cf26"/>
    <path d="M642.37,857.63A93.14,93.14,0,0,0,600,779.51V935.74A93.1,93.1,0,0,0,642.37,857.63Z" style="fill: #0c9559"/>
    <path d="M628.81,1008.47H600V1133.9h28.81a62.72,62.72,0,1,0,0-125.43Z" style="fill: #0c9559"/>
    <path d="M492.16,1008.47a29.57,29.57,0,0,1,2.56-57.62h54.43A92.77,92.77,0,0,0,600,935.74V779.51a92.76,92.76,0,0,0-50.85-15.1h-283a93.22,93.22,0,0,0,0,186.44H371.38a29.57,29.57,0,0,1,2.56,57.62H160.51A602.07,602.07,0,0,0,326,1133.9H600V1008.47Z" style="fill: #31cf26"/>
  </g>
  <g>
    <path d="M395.76,294.92H175.42a38.14,38.14,0,0,1,0-76.28H395.76a38.14,38.14,0,0,1,0,76.28Z" style="fill: #fff"/>
    <path d="M388.14,193.22H305.08a25.43,25.43,0,0,1,0-50.85h83.06a25.43,25.43,0,0,1,0,50.85Z" style="fill: #fff"/>
    <path d="M669.49,364.41H596.61a25.43,25.43,0,0,1,0-50.85h72.88a25.43,25.43,0,1,1,0,50.85Z" style="fill: #fff"/>
    <path d="M918.64,1054.24H845.76a25.43,25.43,0,0,1,0-50.85h72.88a25.43,25.43,0,1,1,0,50.85Z" style="fill: #fff"/>
    <path d="M1017.8,959.32h-.42l-83.9-.85a41.52,41.52,0,1,1,.84-83l83.9.84a41.53,41.53,0,0,1-.42,83.05Z" style="fill: #fff"/>
    <path d="M642.37,661H522a52.55,52.55,0,0,1,0-105.09H642.37a52.55,52.55,0,1,1,0,105.09Z" style="fill: #fff"/>
    <path d="M508.47,863.56h-27.6a18.65,18.65,0,0,1,5.57-36.44h22.88a44.92,44.92,0,1,0,0-89.83H317a18.65,18.65,0,0,1-5.57-36.44h18.28a27.12,27.12,0,0,0,0-54.24H109.32a27.12,27.12,0,1,0,0,54.24h91.16a18.64,18.64,0,0,1-5.56,36.44h-19.5a44.92,44.92,0,0,0,0,89.83h211A18.65,18.65,0,0,1,392,863.56H359.32a61.87,61.87,0,0,0,0,123.73H508.47a61.87,61.87,0,1,0,0-123.73Z" style="fill: #fff"/>
    <path d="M1124.32,305.08H987a12,12,0,0,1,2.87-23.72h8.48a17,17,0,0,0,0-33.9H925.42a17,17,0,1,0,0,33.9h5.91a12,12,0,0,1,2.88,23.72H906.78a40.68,40.68,0,1,0,0,81.36h255.79A597,597,0,0,0,1124.32,305.08Z" style="fill: #fff"/>
  </g>
</svg>
